<?xml version="1.0" standalone="no"?>
<!DOCTYPE svg PUBLIC "-//W3C//DTD SVG 20010904//EN"
 "http://www.w3.org/TR/2001/REC-SVG-20010904/DTD/svg10.dtd">
<svg version="1.0" xmlns="http://www.w3.org/2000/svg"
 width="260.000000pt" height="60.000000pt" viewBox="0 0 260.000000 60.000000"
 preserveAspectRatio="xMidYMid meet">

<g transform="translate(0.000000,60.000000) scale(0.100000,-0.100000)"
fill="#ec1c23" stroke="none">
<path d="M80 410 c0 -33 1 -60 3 -60 2 0 55 27 118 60 l114 60 -117 0 -118 0
0 -60z"/>
<path d="M639 410 c63 -33 116 -60 118 -60 2 0 3 27 3 60 l0 60 -117 0 -118 0
114 -60z"/>
<path d="M810 285 l0 -165 55 0 55 0 0 165 0 165 -55 0 -55 0 0 -165z"/>
<path d="M970 285 l0 -165 45 0 45 0 0 125 c0 77 4 125 10 125 6 0 38 -56 72
-125 l63 -125 40 0 40 0 65 125 c36 69 68 125 73 125 4 0 7 -56 7 -126 l0
-125 48 3 47 3 3 163 2 162 -93 0 -93 0 -44 -97 c-24 -54 -46 -101 -50 -105
-3 -5 -28 39 -54 97 l-49 105 -88 0 -89 0 0 -165z"/>
<path d="M1580 285 l0 -165 169 0 c164 0 217 8 233 33 16 25 8 97 -12 117 -19
19 -19 22 -5 43 28 40 17 109 -21 126 -15 7 -90 11 -194 11 l-170 0 0 -165z
m298 63 c-3 -22 -8 -23 -105 -26 l-103 -3 0 26 0 25 106 0 c104 0 105 0 102
-22z m6 -103 c8 -9 13 -22 10 -30 -5 -12 -28 -15 -115 -15 -108 0 -109 0 -109
23 0 13 3 27 7 30 3 4 48 7 99 7 70 0 96 -4 108 -15z"/>
<path d="M2040 285 l0 -165 55 0 55 0 0 165 0 165 -55 0 -55 0 0 -165z"/>
<path d="M2200 285 l0 -165 168 2 167 3 3 37 3 37 -118 3 -118 3 -3 123 -3
122 -49 0 -50 0 0 -165z"/>
<path d="M271 358 l-133 -71 140 -74 141 -74 78 40 c43 22 107 55 142 74 l63
34 -135 72 c-74 39 -141 71 -148 70 -8 0 -74 -32 -148 -71z"/>
<path d="M80 160 l0 -60 118 0 117 0 -45 26 c-55 32 -178 94 -185 94 -3 0 -5
-27 -5 -60z"/>
<path d="M642 166 c-56 -29 -105 -56 -109 -60 -3 -3 46 -6 110 -6 l117 0 0 60
c0 33 -3 60 -7 60 -5 -1 -54 -25 -111 -54z"/>
</g>
</svg>
